<?xml version="1.0" standalone="no"?><!DOCTYPE svg PUBLIC "-//W3C//DTD SVG 1.1//EN" "http://www.w3.org/Graphics/SVG/1.1/DTD/svg11.dtd"><svg t="1527305626076" class="icon" style="" viewBox="0 0 1024 1024" version="1.1" xmlns="http://www.w3.org/2000/svg" p-id="3234" xmlns:xlink="http://www.w3.org/1999/xlink" width="200" height="200"><defs><style type="text/css"></style></defs><path d="M806 911H218c-57.9 0-105-47.1-105-105V218c0-57.9 47.1-105 105-105h349.4c11.6 0 21 9.4 21 21s-9.4 21-21 21H218c-34.7 0-63 28.3-63 63v588c0 34.7 28.3 63 63 63h588c34.7 0 63-28.3 63-63V457c0-11.6 9.4-21 21-21s21 9.4 21 21v349c0 57.9-47.1 105-105 105z" p-id="3235"></path><path d="M896.6 129c8.2 8.2 8.2 21.5 0 29.7L525.3 529.9c-8.2 8.2-21.5 8.2-29.7 0s-8.2-21.5 0-29.7L866.9 129c8.1-8.2 21.5-8.2 29.7 0z" p-id="3236"></path></svg>