<?xml version="1.0" standalone="no"?><!DOCTYPE svg PUBLIC "-//W3C//DTD SVG 1.1//EN" "http://www.w3.org/Graphics/SVG/1.1/DTD/svg11.dtd"><svg t="1527307661824" class="icon" style="" viewBox="0 0 1024 1024" version="1.1" xmlns="http://www.w3.org/2000/svg" p-id="6385" xmlns:xlink="http://www.w3.org/1999/xlink" width="200" height="200"><defs><style type="text/css"></style></defs><path d="M376.551098 260.295328l214.650755 0 7.715729-15.344476c2.295276-1.216711 4.293793-3.059686 5.687536-5.477758l14.309914-24.812105c3.952009-6.850012 1.607614-15.610536-5.237281-19.566638L390.613372 66.174142c-6.844895-3.956102-15.595186-1.607614-19.547195 5.242398l-14.309914 24.810059c-3.948939 6.851035-1.604544 15.612583 5.240351 19.567661l153.264663 88.579431L371.72928 204.373691c-169.860642 0-307.561841 137.700175-307.561841 307.561841 0 149.721976 106.990756 274.433326 248.681826 301.907051l26.598798-52.896744c-124.056434-17.641799-219.361033-122.398678-219.361033-249.010307C120.087029 372.95827 234.910171 260.295328 376.551098 260.295328z" p-id="6386"></path><path d="M958.89419 511.936555c0-131.909286-83.049484-244.405429-199.705368-288.098557l-25.786293 51.280944c98.872868 34.932604 169.57207 127.767965 169.57207 236.817614 0 138.977261-114.823142 251.642251-256.464069 251.642251L487.779366 763.578806l-8.998955 17.896602c-1.320065 1.072425-2.479471 2.387373-3.381004 3.949962l-14.309914 24.810059c-3.952009 6.851035-1.607614 15.612583 5.237281 19.567661l223.065402 128.919185c6.844895 3.956102 15.595186 1.607614 19.547195-5.243421l14.309914-24.810059c3.952009-6.850012 1.604544-15.610536-5.240351-19.566638L562.971905 819.497373l88.360444 0C821.192991 819.497373 958.89419 681.798221 958.89419 511.936555z" p-id="6387"></path><path d="M419.298691 642.980123 419.298691 678.44587 605.65196 678.44587 605.65196 642.980123 533.041222 642.980123 533.041222 346.45157 417.409668 380.028293 417.409668 417.802618 492.119207 396.187321 492.119207 642.980123Z" p-id="6388"></path></svg>