<?xml version="1.0" standalone="no"?><!DOCTYPE svg PUBLIC "-//W3C//DTD SVG 1.1//EN" "http://www.w3.org/Graphics/SVG/1.1/DTD/svg11.dtd"><svg t="1527307598690" class="icon" style="" viewBox="0 0 1024 1024" version="1.1" xmlns="http://www.w3.org/2000/svg" p-id="5684" xmlns:xlink="http://www.w3.org/1999/xlink" width="200" height="200"><defs><style type="text/css"></style></defs><path d="M192.403055 831.882448" p-id="5685"></path><path d="M927.083693 563.310619c-0.011256-0.231267-0.032746-0.460488-0.049119-0.690732-0.019443-0.276293-0.035816-0.553609-0.063445-0.828878-0.028653-0.290619-0.067538-0.578168-0.104377-0.86674-0.026606-0.213871-0.050142-0.427742-0.081864-0.64059-0.046049-0.313132-0.102331-0.62217-0.157589-0.931209-0.033769-0.187265-0.063445-0.375553-0.100284-0.562818-0.061398-0.314155-0.13303-0.624217-0.204661-0.935302-0.042979-0.185218-0.081864-0.370437-0.127913-0.555655-0.073678-0.295735-0.155543-0.588401-0.237407-0.881067-0.056282-0.201591-0.110517-0.403183-0.170892-0.602727-0.080841-0.267083-0.168846-0.531096-0.25685-0.795109-0.074701-0.225127-0.148379-0.450255-0.228197-0.674359-0.082888-0.231267-0.171915-0.459464-0.25992-0.687662-0.098237-0.254803-0.196475-0.51063-0.300852-0.763386-0.078795-0.190335-0.163729-0.378623-0.246617-0.566912-0.124843-0.285502-0.251733-0.571005-0.385786-0.854461-0.071631-0.151449-0.148379-0.299829-0.222057-0.449231-0.154519-0.313132-0.312108-0.624217-0.477884-0.932232-0.062422-0.116657-0.128937-0.230244-0.192382-0.345877-0.184195-0.332575-0.37146-0.662079-0.568958-0.989537-0.055259-0.091074-0.113587-0.180102-0.168846-0.271176-0.210801-0.340761-0.424672-0.679475-0.649799-1.014096-0.051165-0.076748-0.106424-0.151449-0.158612-0.227174-0.233314-0.339738-0.469698-0.677429-0.717338-1.00898-0.052189-0.069585-0.107447-0.137123-0.160659-0.206708-0.251733-0.331551-0.506537-0.661056-0.773619-0.984421-0.051165-0.062422-0.105401-0.121773-0.157589-0.183172-0.589424-0.703011-1.207501-1.390673-1.868557-2.051729L808.075229 432.891268c-12.175297-12.175297-31.914874-12.175297-44.090171 0-12.175297 12.175297-12.175297 31.914874 0 44.090171l56.700373 56.700373L126.938064 533.681812c-17.217127 0-31.174 13.956873-31.174 31.174 0 17.217127 13.956873 31.174 31.174 31.174L895.949602 596.029812c0.013303 0 0.025583-0.001023 0.037862-0.001023 0.500397-0.001023 1.000793-0.013303 1.50119-0.037862 0.254803-0.01228 0.506537-0.035816 0.759293-0.054235 0.251733-0.01842 0.503467-0.032746 0.7552-0.057305 0.318248-0.030699 0.632403-0.073678 0.947582-0.113587 0.184195-0.023536 0.369414-0.042979 0.553609-0.070608 0.343831-0.050142 0.684592-0.11154 1.025353-0.172939 0.153496-0.027629 0.308015-0.052189 0.461511-0.082888 0.348947-0.068562 0.694825-0.147356 1.039679-0.227174 0.147356-0.034792 0.295735-0.065492 0.443092-0.102331 0.335644-0.082888 0.667196-0.176009 0.998747-0.26913 0.159636-0.045025 0.319272-0.088004 0.478907-0.1361 0.312108-0.094144 0.620124-0.195451 0.927115-0.298805 0.179079-0.060375 0.358157-0.11768 0.536212-0.181125 0.280386-0.100284 0.557702-0.206708 0.835018-0.315178 0.203638-0.078795 0.408299-0.157589 0.610914-0.240477 0.245593-0.101307 0.488117-0.209778 0.730641-0.317225 0.229221-0.101307 0.458441-0.202615 0.685615-0.310062 0.213871-0.101307 0.423649-0.207731 0.63445-0.314155 0.248663-0.124843 0.497327-0.248663 0.74292-0.38067 0.188288-0.101307 0.373507-0.207731 0.559748-0.312108 0.258896-0.145309 0.517793-0.291642 0.774643-0.445138 0.173962-0.104377 0.343831-0.214894 0.515746-0.322341 0.257873-0.161682 0.515746-0.323365 0.77055-0.494257 0.174985-0.11768 0.345877-0.240477 0.517793-0.361227 0.2415-0.168846 0.483001-0.335644 0.720408-0.511653 0.199545-0.148379 0.39295-0.303922 0.589424-0.456395 0.201591-0.157589 0.405229-0.311085 0.603751-0.474814 0.267083-0.218988 0.525979-0.447185 0.784876-0.674359 0.122797-0.107447 0.24764-0.209778 0.369414-0.320295 0.772596-0.699941 1.5104-1.437745 2.210341-2.210341 0.107447-0.118704 0.207731-0.2415 0.313132-0.36225 0.229221-0.260943 0.458441-0.521886 0.679475-0.791016 0.161682-0.197498 0.315178-0.399089 0.471744-0.599657 0.154519-0.197498 0.311085-0.39295 0.460488-0.594541 0.174985-0.23536 0.339738-0.474814 0.50756-0.713244 0.121773-0.174985 0.246617-0.346901 0.36532-0.523933 0.169869-0.252757 0.330528-0.509606 0.491187-0.766456 0.10847-0.172939 0.218988-0.343831 0.324388-0.51984 0.153496-0.254803 0.297782-0.512676 0.443092-0.77055 0.105401-0.187265 0.212848-0.373507 0.314155-0.562818 0.130983-0.24457 0.254803-0.491187 0.378623-0.737804 0.106424-0.212848 0.214894-0.424672 0.316202-0.64059 0.106424-0.225127 0.206708-0.452301 0.306992-0.679475 0.10847-0.24457 0.217964-0.48914 0.320295-0.73678 0.082888-0.200568 0.159636-0.402159 0.23843-0.603751 0.10847-0.279363 0.216941-0.558725 0.318248-0.842181 0.062422-0.174985 0.119727-0.352017 0.178055-0.528026 0.104377-0.310062 0.206708-0.621147 0.301875-0.935302 0.047072-0.156566 0.089028-0.314155 0.134053-0.471744 0.095167-0.333598 0.187265-0.667196 0.271176-1.00591 0.035816-0.145309 0.066515-0.290619 0.100284-0.435928 0.080841-0.346901 0.159636-0.695848 0.229221-1.046842 0.029676-0.150426 0.053212-0.301875 0.080841-0.453325 0.062422-0.343831 0.12382-0.686638 0.174985-1.034563 0.026606-0.180102 0.045025-0.361227 0.068562-0.541329 0.040932-0.319272 0.083911-0.63752 0.11461-0.959861 0.023536-0.245593 0.037862-0.491187 0.056282-0.735757 0.019443-0.258896 0.042979-0.51677 0.056282-0.777713 0.024559-0.49835 0.036839-0.997724 0.037862-1.497097 0-0.013303 0.001023-0.026606 0.001023-0.040932 0 0 0-0.001023 0-0.001023C927.123602 564.339042 927.109276 563.824319 927.083693 563.310619z" p-id="5686"></path><path d="M193.07639 348.174817l597.924975 0c0.096191 0 0.191358-0.00614 0.288572-0.007163 8.080026 0.078795 16.185634-2.958378 22.350031-9.123798 12.175297-12.175297 12.175297-31.914874 0-44.090171L703.723579 185.037297c-12.175297-12.175297-31.914874-12.175297-44.090171 0-12.175297 12.175297-12.175297 31.914874 0 44.090171l56.695257 56.695257L193.07639 285.822724c-17.21815 0-31.176047 13.957897-31.176047 31.176047C161.900344 334.216921 175.85824 348.174817 193.07639 348.174817z" p-id="5687"></path><path d="M815.103296 831.79649c0.195451-0.237407 0.38067-0.480954 0.567935-0.722454 0.121773-0.156566 0.245593-0.311085 0.364297-0.470721 0.198521-0.267083 0.38681-0.538259 0.576121-0.810459 0.099261-0.14224 0.200568-0.282433 0.297782-0.426719 0.188288-0.280386 0.367367-0.565888 0.545422-0.851391 0.090051-0.144286 0.182149-0.286526 0.270153-0.432859 0.168846-0.280386 0.329505-0.564865 0.48914-0.850367 0.090051-0.160659 0.182149-0.320295 0.26913-0.483001 0.144286-0.268106 0.279363-0.539282 0.415462-0.810459 0.094144-0.189312 0.190335-0.3776 0.281409-0.568958 0.11768-0.24764 0.228197-0.49835 0.338714-0.748037 0.098237-0.222057 0.197498-0.443092 0.290619-0.668219 0.092098-0.223081 0.178055-0.447185 0.265036-0.671289 0.100284-0.257873 0.199545-0.515746 0.292666-0.776689 0.069585-0.196475 0.134053-0.394996 0.200568-0.592494 0.097214-0.289596 0.193405-0.579191 0.281409-0.87288 0.053212-0.176009 0.100284-0.353041 0.150426-0.530073 0.089028-0.315178 0.177032-0.63138 0.25685-0.950651 0.039909-0.162706 0.075725-0.326435 0.113587-0.490164 0.076748-0.330528 0.151449-0.661056 0.217964-0.995677 0.032746-0.167822 0.059352-0.335644 0.090051-0.50449 0.059352-0.327458 0.11768-0.655939 0.166799-0.986467 0.028653-0.196475 0.050142-0.39295 0.074701-0.590448 0.038886-0.302899 0.079818-0.605797 0.109494-0.911766 0.025583-0.261966 0.040932-0.524956 0.060375-0.787946 0.017396-0.243547 0.039909-0.485047 0.052189-0.729617 0.050142-1.027399 0.050142-2.055822 0-3.083222-0.01228-0.245593-0.034792-0.487094-0.052189-0.731664-0.019443-0.261966-0.033769-0.524956-0.059352-0.786922-0.029676-0.305969-0.070608-0.60989-0.109494-0.913812-0.024559-0.196475-0.046049-0.39295-0.074701-0.588401-0.048095-0.331551-0.107447-0.660032-0.166799-0.988514-0.029676-0.167822-0.056282-0.335644-0.090051-0.502443-0.065492-0.334621-0.141216-0.665149-0.217964-0.9967-0.037862-0.162706-0.072655-0.326435-0.112564-0.48914-0.079818-0.319272-0.167822-0.635473-0.25685-0.951675-0.050142-0.176009-0.097214-0.353041-0.150426-0.529049-0.089028-0.293689-0.185218-0.584308-0.282433-0.874927-0.065492-0.197498-0.12996-0.394996-0.199545-0.590448-0.093121-0.261966-0.193405-0.51984-0.293689-0.777713-0.086981-0.224104-0.171915-0.448208-0.264013-0.670266-0.093121-0.224104-0.192382-0.446162-0.290619-0.668219-0.110517-0.25071-0.221034-0.500397-0.338714-0.748037-0.091074-0.191358-0.186242-0.379647-0.281409-0.568958-0.135076-0.271176-0.271176-0.542352-0.415462-0.810459-0.088004-0.162706-0.180102-0.323365-0.270153-0.484024-0.159636-0.284479-0.319272-0.567935-0.488117-0.848321-0.088004-0.146333-0.181125-0.290619-0.272199-0.435928-0.178055-0.284479-0.356111-0.568958-0.544399-0.849344-0.097214-0.144286-0.199545-0.285502-0.298805-0.427742-0.188288-0.271176-0.376577-0.542352-0.575098-0.808412-0.119727-0.161682-0.245593-0.317225-0.36839-0.475837-0.186242-0.239454-0.369414-0.480954-0.562818-0.716314-0.168846-0.205685-0.346901-0.405229-0.520863-0.606821-0.157589-0.182149-0.311085-0.367367-0.472767-0.546446-0.345877-0.38067-0.698918-0.754177-1.063215-1.118474L703.130062 680.060647c-12.175297-12.175297-31.914874-12.175297-44.090171 0s-12.175297 31.914874 0 44.090171l56.695257 56.695257L193.07639 780.846074c-17.21815 0-31.176047 13.957897-31.176047 31.176047 0 17.21815 13.957897 31.176047 31.176047 31.176047l597.924975 0c0.016373 0 0.032746-0.001023 0.049119-0.001023 0.497327-0.001023 0.995677-0.013303 1.493004-0.037862 0.24457-0.01228 0.487094-0.034792 0.729617-0.052189 0.26299-0.019443 0.525979-0.033769 0.787946-0.060375 0.305969-0.029676 0.608867-0.070608 0.911766-0.109494 0.196475-0.025583 0.393973-0.046049 0.590448-0.074701 0.331551-0.048095 0.659009-0.107447 0.986467-0.166799 0.167822-0.030699 0.336668-0.057305 0.50449-0.090051 0.334621-0.065492 0.665149-0.141216 0.995677-0.217964 0.163729-0.037862 0.327458-0.072655 0.490164-0.113587 0.319272-0.078795 0.635473-0.167822 0.950651-0.25685 0.177032-0.050142 0.354064-0.097214 0.530073-0.150426 0.293689-0.088004 0.583285-0.184195 0.87288-0.281409 0.197498-0.066515 0.396019-0.12996 0.592494-0.200568 0.260943-0.093121 0.518816-0.193405 0.776689-0.292666 0.224104-0.086981 0.448208-0.172939 0.671289-0.265036 0.224104-0.093121 0.446162-0.192382 0.668219-0.290619 0.25071-0.110517 0.500397-0.221034 0.748037-0.338714 0.191358-0.091074 0.379647-0.186242 0.568958-0.281409 0.271176-0.135076 0.542352-0.271176 0.810459-0.415462 0.162706-0.086981 0.322341-0.179079 0.483001-0.270153 0.284479-0.159636 0.568958-0.319272 0.850367-0.48914 0.146333-0.088004 0.288572-0.180102 0.432859-0.270153 0.285502-0.178055 0.569982-0.357134 0.851391-0.545422 0.144286-0.097214 0.284479-0.198521 0.426719-0.297782 0.271176-0.189312 0.543376-0.3776 0.810459-0.576121 0.159636-0.118704 0.313132-0.242524 0.470721-0.364297 0.2415-0.187265 0.485047-0.372483 0.722454-0.567935 0.204661-0.167822 0.401136-0.343831 0.601704-0.51677 0.183172-0.158612 0.369414-0.313132 0.550539-0.476861 0.762363-0.690732 1.489934-1.419326 2.181689-2.181689 0.163729-0.181125 0.318248-0.367367 0.476861-0.550539C814.759465 832.197626 814.935474 832.001151 815.103296 831.79649z" p-id="5688"></path></svg>